<svg width="88" height="88" viewBox="0 0 88 88" fill="none" xmlns="http://www.w3.org/2000/svg">
<path d="M30.25 15.4807C27.8056 17.9252 31.7778 17.1112 34.2222 22.0001C36.6667 26.8889 44 24.4445 41.5555 19.5556C41.0398 18.5216 39.0035 16.8765 37.3242 15.6347C37.3242 15.6347 38.7567 13.9554 37.9915 12.1734C37.2264 10.3914 30.25 15.4807 30.25 15.4807Z" fill="#FFDC5D"/>
<path d="M29.2795 5.61245C25.5151 5.71023 22.5426 8.83912 22.638 12.6036C22.7358 16.368 25.8646 19.3405 29.6291 19.2451C33.3935 19.1473 36.366 16.0185 36.2706 12.254C36.1753 8.48712 33.044 5.51467 29.2795 5.61245Z" fill="#FFDC5D"/>
<path d="M48.774 9.42079C46.684 10.0001 44.1515 10.7946 40.3138 7.99568C37.5735 5.99612 35.0167 5.33123 29.634 6.50946C23.9189 7.76101 19.9027 11.9703 23.9629 13.1315C25.7351 13.6375 27.0111 12.9603 29.6853 12.6817C33.6087 12.2735 35.2024 15.5881 39.0084 15.5857C46.4542 15.5759 51.8931 8.55546 48.774 9.42079Z" fill="#FFAC33"/>
<path d="M46.4444 39.1111C46.4444 39.1111 39.1111 44 39.1111 46.4444C39.1111 48.8889 48.8889 56.2222 51.3333 58.6666C53.7778 61.1111 58.6666 61.1111 56.2222 56.2222C53.7778 51.3333 46.4444 39.1111 46.4444 39.1111Z" fill="#F9CA55"/>
<path d="M50.4387 56.2736C50.4387 56.2736 53.306 58.2023 55.2347 55.3325C57.1633 52.4627 58.5713 59.6616 58.5713 59.6616C58.5713 59.6616 52.316 65.8681 47.52 66.8092C42.724 67.7503 44.6527 64.8805 46.5789 62.0132L50.4387 56.2736Z" fill="#A0041E"/>
<path d="M17.1111 53.7778C7.66089 53.7778 0 61.4387 0 70.8889C0 80.3392 7.66089 88.0001 17.1111 88.0001C26.5613 88.0001 34.2222 80.3392 34.2222 70.8889C34.2222 61.4387 26.5638 53.7778 17.1111 53.7778ZM17.1111 83.1112C10.362 83.1112 4.88889 77.6405 4.88889 70.8889C4.88889 64.1374 10.362 58.6667 17.1111 58.6667C23.8602 58.6667 29.3333 64.1374 29.3333 70.8889C29.3333 77.6405 23.8627 83.1112 17.1111 83.1112ZM70.8889 53.7778C61.4411 53.7778 53.7778 61.4387 53.7778 70.8889C53.7778 80.3392 61.4411 88.0001 70.8889 88.0001C80.3416 88.0001 88 80.3392 88 70.8889C88 61.4387 80.3416 53.7778 70.8889 53.7778ZM70.8889 83.1112C64.1398 83.1112 58.6667 77.6405 58.6667 70.8889C58.6667 64.1374 64.1398 58.6667 70.8889 58.6667C77.6404 58.6667 83.1111 64.1374 83.1111 70.8889C83.1111 77.6405 77.6404 83.1112 70.8889 83.1112Z" fill="#292F33"/>
<path d="M53.7778 48.889C53.7778 47.5372 52.5947 46.4446 51.1304 46.4446H24.6473C23.1856 46.4446 22 47.5372 22 48.889C22 50.2408 23.1856 51.3335 24.6473 51.3335H51.128C52.5947 51.3335 53.7778 50.2408 53.7778 48.889ZM73.3333 70.889C73.3333 69.5372 72.2407 68.4446 70.8889 68.4446H44C42.6507 68.4446 41.5556 69.5372 41.5556 70.889C41.5556 72.2408 42.6507 73.3335 44 73.3335H70.8889C72.2407 73.3335 73.3333 72.2408 73.3333 70.889Z" fill="#AAB8C2"/>
<path d="M51.8809 41.5557L41.6973 70.0677C41.2451 71.3363 41.9075 72.737 43.1787 73.1892C43.45 73.287 43.7262 73.3334 44 73.3334C45.0047 73.3334 45.9458 72.7101 46.3027 71.7103L57.0729 41.5557H51.8809Z" fill="#AAB8C2"/>
<path d="M70.8914 73.3335C70.0847 73.3335 69.2927 72.9326 68.8258 72.2017L51.7147 45.3129C50.9887 44.1738 51.326 42.6631 52.4651 41.9371C53.6067 41.2111 55.1149 41.5484 55.8409 42.6875L72.952 69.5764C73.678 70.7155 73.3407 72.2262 72.2016 72.9522C71.7934 73.2089 71.3411 73.3335 70.8914 73.3335ZM46.4445 62.9055L25.9429 46.958C24.8796 46.1269 23.3445 46.3224 22.5134 47.3882C21.6847 48.4564 21.8778 49.9891 22.9436 50.8177L44.9436 67.9289C45.3885 68.2784 45.9165 68.4446 46.442 68.4446H46.4445V62.9055Z" fill="#AAB8C2"/>
<path d="M17.1111 73.3335C16.8569 73.3335 16.5953 73.2919 16.3387 73.2063C15.0578 72.781 14.366 71.3975 14.7938 70.1141L21.5698 49.7861L13.2024 43.5088C12.122 42.6997 11.9044 41.167 12.7136 40.0866C13.5227 39.011 15.0529 38.7886 16.1358 39.5977L27.324 47.9895L19.4333 71.6614C19.0887 72.6857 18.1329 73.3335 17.1111 73.3335Z" fill="#AAB8C2"/>
<path d="M64.4918 46.4444C64.4184 46.4444 64.3476 46.4395 64.2742 46.4297L50.4093 44.699C49.5 44.5866 48.8351 43.7848 48.8938 42.8706C48.95 41.9564 49.7078 41.245 50.622 41.245C50.7222 41.245 60.5636 41.201 65.2618 38.0697C65.8729 37.6615 66.6844 37.6859 67.276 38.1332C67.8602 38.5855 68.0998 39.3579 67.8651 40.0595L66.132 45.2588C65.8973 45.975 65.23 46.4444 64.4918 46.4444ZM26.8889 43.9999H14.6667C13.3173 43.9999 12.2222 42.9048 12.2222 41.5555C12.2222 40.2061 13.3173 39.111 14.6667 39.111H26.8889C28.2382 39.111 29.3333 40.2061 29.3333 41.5555C29.3333 42.9048 28.2382 43.9999 26.8889 43.9999Z" fill="#292F33"/>
<path d="M53.7753 31.7778L44 39.1112L51.3333 46.4445L53.7753 31.7778Z" fill="#A0041E"/>
<path d="M48.8864 41.5556C48.8864 41.5556 43.9975 48.889 43.9975 51.3334C43.9975 53.7778 46.442 61.1112 46.442 68.4445C46.442 75.7778 51.3309 75.7778 51.3309 73.3334C51.3309 70.8889 55.1955 60.087 51.3309 56.2223C48.8864 53.7778 56.2198 46.4445 56.2198 46.4445L48.8864 41.5556ZM38.3411 32.5038L31.6189 30.5874C30.5262 35.3687 24.2293 41.5532 22 41.5532C19.5555 41.5532 17.1111 41.5532 17.1111 43.9976C17.1111 46.4421 17.1111 46.4421 22 46.4421C26.8889 46.4421 31.7778 41.5532 34.2222 39.1087C35.8111 37.5198 37.422 34.8138 38.3411 32.5038Z" fill="#FFDC5D"/>
<path d="M53.7753 31.7777L46.442 41.5554L56.2198 48.8888C56.2198 48.8888 68.442 36.6666 68.442 31.7777C68.442 26.8888 61.1087 24.4443 61.1087 24.4443L53.7753 31.7777Z" fill="#BE1931"/>
<path d="M51.3309 17.1087C43.9975 14.6642 37.6787 16.0967 34.2198 19.5531C31.7753 21.9976 31.7753 24.442 31.7753 29.3309C31.7753 29.7611 31.702 30.2158 31.5969 30.6753L38.3044 32.5918C38.7982 31.3476 39.1111 30.1865 39.1111 29.3309C39.1111 26.8865 41.5555 26.8865 44 29.3309C46.4444 31.7753 48.8889 34.2198 51.3333 34.2198C53.7778 34.2198 66 24.442 66 24.442C58.6642 21.9976 55.9704 18.6536 51.3309 17.1087ZM46.4444 70.8889C46.4444 70.8889 48.8889 73.3333 51.3333 70.8889C53.7778 68.4445 53.7778 75.7778 53.7778 75.7778C53.7778 75.7778 46.4444 80.6667 41.5555 80.6667C36.6667 80.6667 39.1111 78.2222 41.5555 75.7778L46.4444 70.8889ZM26.8889 4.8889C31.7778 2.44445 41.5555 4.8889 36.6667 9.77779C34.2222 12.2222 19.5555 14.6667 19.5555 14.6667C19.5555 12.2222 22 7.33334 26.8889 4.8889Z" fill="#DD2E44"/>
</svg>
