<svg width="25" height="25" viewBox="0 0 25 25" fill="none" xmlns="http://www.w3.org/2000/svg">
<path d="M9.25696 22.2222C10.1199 22.2222 10.8195 21.5226 10.8195 20.6597C10.8195 19.7967 10.1199 19.0972 9.25696 19.0972C8.39401 19.0972 7.69446 19.7967 7.69446 20.6597C7.69446 21.5226 8.39401 22.2222 9.25696 22.2222Z" fill="#7E7E7E"/>
<path d="M18.75 22.2222C19.6129 22.2222 20.3125 21.5226 20.3125 20.6597C20.3125 19.7967 19.6129 19.0972 18.75 19.0972C17.8871 19.0972 17.1875 19.7967 17.1875 20.6597C17.1875 21.5226 17.8871 22.2222 18.75 22.2222Z" fill="#7E7E7E"/>
<path d="M22.9722 3.72918C22.9076 3.64952 22.8261 3.58517 22.7337 3.54074C22.6412 3.49631 22.5401 3.47292 22.4375 3.47224H7.97917L8.43056 4.86113H21.5278L19.6736 13.1945H9.25695L6.08334 3.14585C6.04901 3.03923 5.9894 2.94249 5.90959 2.86389C5.82978 2.78529 5.73214 2.72716 5.62501 2.69446L2.77778 1.81946C2.69024 1.79256 2.59825 1.78316 2.50707 1.79181C2.41589 1.80046 2.32731 1.82698 2.24638 1.86987C2.08293 1.95647 1.96059 2.10446 1.90626 2.28127C1.85192 2.45808 1.87005 2.64923 1.95666 2.81268C2.04326 2.97612 2.19125 3.09846 2.36806 3.1528L4.86112 3.91668L8.04862 13.9861L6.90973 14.9167L6.81945 15.007C6.53774 15.3316 6.37806 15.7443 6.36792 16.174C6.35778 16.6038 6.49781 17.0236 6.7639 17.3611C6.95317 17.5913 7.19369 17.774 7.46621 17.8946C7.73874 18.0152 8.0357 18.0703 8.33334 18.0556H19.9236C20.1078 18.0556 20.2844 17.9824 20.4147 17.8522C20.5449 17.7219 20.6181 17.5453 20.6181 17.3611C20.6181 17.177 20.5449 17.0003 20.4147 16.8701C20.2844 16.7398 20.1078 16.6667 19.9236 16.6667H8.22223C8.14226 16.664 8.06435 16.6406 7.99602 16.599C7.92769 16.5574 7.87125 16.4988 7.83216 16.429C7.79306 16.3592 7.77263 16.2805 7.77284 16.2005C7.77304 16.1205 7.79388 16.0418 7.83334 15.9722L9.50695 14.5834H20.2292C20.3897 14.5873 20.5466 14.5354 20.6732 14.4367C20.7999 14.3379 20.8883 14.1983 20.9236 14.0417L23.125 4.31946C23.1461 4.21593 23.1433 4.10895 23.1169 4.00666C23.0904 3.90437 23.0409 3.80947 22.9722 3.72918Z" fill="#7E7E7E"/>
</svg>
