<svg width="10" height="12" viewBox="0 0 10 12" fill="none" xmlns="http://www.w3.org/2000/svg">
<path d="M1.38184 5.20956C1.40081 4.9709 1.50815 4.74821 1.68247 4.58583C1.85679 4.42346 2.0853 4.33332 2.3225 4.33337H8.01083C8.24803 4.33332 8.47654 4.42346 8.65086 4.58583C8.82518 4.74821 8.93252 4.9709 8.9515 5.20956L9.33031 9.97147C9.34073 10.1025 9.32416 10.2343 9.28164 10.3586C9.23912 10.4828 9.17157 10.5969 9.08326 10.6935C8.99494 10.7901 8.88776 10.8672 8.76847 10.92C8.64918 10.9727 8.52036 11 8.39012 11H1.94322C1.81298 11 1.68416 10.9727 1.56487 10.92C1.44557 10.8672 1.33839 10.7901 1.25008 10.6935C1.16176 10.5969 1.09421 10.4828 1.05169 10.3586C1.00918 10.2343 0.992605 10.1025 1.00302 9.97147L1.38184 5.20956V5.20956Z" stroke="#191919" stroke-width="0.7" stroke-linecap="round" stroke-linejoin="round"/>
<path d="M6.83333 5.16667V2.85185C6.83333 2.36071 6.65774 1.88968 6.34518 1.54239C6.03262 1.19511 5.60869 1 5.16667 1C4.72464 1 4.30072 1.19511 3.98816 1.54239C3.67559 1.88968 3.5 2.36071 3.5 2.85185V5.16667" stroke="#191919" stroke-width="0.7" stroke-linecap="round" stroke-linejoin="round"/>
</svg>
