<svg width="88" height="88" viewBox="0 0 88 88" fill="none" xmlns="http://www.w3.org/2000/svg">
<g clip-path="url(#clip0_199_87)">
<path d="M12.5229 12.2222H27.1896C29.8882 12.2222 31.7778 11.968 31.7778 14.6667V9.7778C31.7778 7.07914 29.8882 4.88892 27.1896 4.88892H7.634C2.74511 4.88892 -1.12445 10.0834 0.300665 17.1111C0.300665 17.1111 4.67867 40.0278 4.98667 41.4529C5.80067 45.2222 10.1787 48.8889 14.8647 48.8889H31.8731C34.5742 48.8889 31.7778 44.2542 31.7778 41.5556V36.6667C31.7778 39.3654 29.8882 41.5556 27.1896 41.5556H17.4118C14.7131 41.5556 12.9311 39.0085 12.5229 36.6667C12.1147 34.3249 8.65089 18.7416 8.65089 18.7416C7.83689 14.0556 9.82178 12.2222 12.5229 12.2222ZM75.6189 12.2222H60.9522C58.2536 12.2222 53.7778 11.968 53.7778 14.6667V9.7778C53.7778 7.07914 58.2536 4.88892 60.9522 4.88892H80.5078C85.3967 4.88892 89.2687 10.0834 87.8411 17.1111C87.8411 17.1111 83.8493 40.1354 83.512 41.5556C82.6467 45.2222 78.5204 48.8889 73.7342 48.8889H56.2662C53.5676 48.8889 53.7778 44.2542 53.7778 41.5556V36.6667C53.7778 39.3654 58.2536 41.5556 60.9522 41.5556H70.73C73.4287 41.5556 75.2131 39.0085 75.6189 36.6667C76.0247 34.3249 79.4909 18.7416 79.4909 18.7416C80.3024 14.0556 78.32 12.2222 75.6189 12.2222V12.2222ZM50.9227 53.7778C50.9227 36.7694 44.3007 53.7778 44.3007 53.7778C44.3007 53.7778 36.9673 36.7694 36.9673 53.7778C36.9673 70.7862 28.9227 78.2222 28.9227 78.2222H58.9698C58.9673 78.2222 50.9227 70.7862 50.9227 53.7778Z" fill="#FFAC33"/>
<path d="M71.1896 16.0771C71.1896 32.6383 54.6407 60.5465 44.3007 60.5465C33.9582 60.5465 17.4118 32.6383 17.4118 16.0771C17.4118 3.37826 19.8562 0.630703 24.7451 0.630703C28.1038 0.630703 39.4729 0.564703 44.3007 0.564703L61.4118 0.562259C68.5422 0.559814 71.1896 2.23426 71.1896 16.0771V16.0771Z" fill="#FFCC4D"/>
<path d="M66 80.6666C66 83.3653 66.5549 85.5555 63.8562 85.5555H24.7451C22.044 85.5555 22 83.3653 22 80.6666V78.2221C22 75.5235 24.8453 73.3333 27.3924 73.3333H61.4118C63.9589 73.3333 66 75.5235 66 78.2221V80.6666V80.6666Z" fill="#C1694F"/>
<path d="M70.8889 84.639C70.8889 86.4967 71.2922 88.0001 67.8284 88.0001H20.7729C17.6147 88.0001 17.1111 86.4967 17.1111 84.639V84.0279C17.1111 82.1701 18.9151 80.6667 20.7729 80.6667H67.8284C69.6838 80.6667 70.8889 82.1701 70.8889 84.0279V84.639V84.639Z" fill="#C1694F"/>
</g>
<defs>
<clipPath id="clip0_199_87">
<rect width="88" height="88" fill="white"/>
</clipPath>
</defs>
</svg>
