<svg width="91" height="20" viewBox="0 0 91 20" fill="none" xmlns="http://www.w3.org/2000/svg">
<path d="M4.7 12.23H12.71C13.55 12.41 14.12 13.16 14.12 14C14.12 14.81 13.55 15.53 12.77 15.74H4.7V12.23ZM17.57 11.06C17.24 10.46 16.82 9.92 16.31 9.47C16.25 9.41 16.16 9.35 16.1 9.29C16.13 9.26 16.16 9.2 16.19 9.14C16.19 9.11 16.19 9.11 16.22 9.08C16.7 8.21 16.97 7.19 16.97 6.14C16.97 5.12 16.7 4.13 16.22 3.23C16.22 3.2 16.19 3.17 16.16 3.14C15.11 1.28 13.1 0.139998 10.94 0.139998H0.5V4.4H4.7H11.42C12.2 4.61 12.77 5.33 12.77 6.14C12.77 7.01 12.14 7.76 11.3 7.94H0.5V20H10.94C11.18 20 11.39 20 11.63 19.97C11.87 20 12.08 20 12.32 20C14.51 20 16.52 18.83 17.57 16.91C18.08 16.04 18.35 15.02 18.35 14C18.35 12.95 18.08 11.96 17.57 11.06ZM21.3887 0.17V20H25.5887V0.17H21.3887ZM32.7957 0.199999H28.5957V9.08L32.7957 4.88V0.199999ZM46.2057 18.68L37.6557 10.1L46.2057 1.55L47.5557 0.199999H41.6157L35.3457 6.44V6.47L28.5957 13.22V20H32.7957V14.96L34.6857 13.07L41.3757 19.79L41.6157 20H47.5557L46.2057 18.68ZM50.5977 0.199999V0.98V4.4H68.2977V0.199999H50.5977ZM54.7977 11.54H66.5277V7.34H54.7977L50.5977 7.31V15.8V16.58V20H68.2977V15.8H54.7977V11.54ZM89.7305 18.8L84.0605 9.5C84.0905 9.5 84.1205 9.47 84.1505 9.44L84.1805 9.41C84.2105 9.41 84.2405 9.38 84.2405 9.35C84.3005 9.32 84.3305 9.29 84.3905 9.26C84.4205 9.23 84.4805 9.17 84.5405 9.14C84.5405 9.11 84.5705 9.11 84.5705 9.11C84.6005 9.08 84.6605 9.02 84.6905 8.99C84.8105 8.87 84.9305 8.78 85.0805 8.63C86.4305 7.28 87.3905 5.6 87.7805 3.74C87.9605 3.02 88.0205 2.3 88.0205 1.58C88.0205 1.34 88.0205 1.1 87.9905 0.889999L87.9605 0.139998H71.3105V4.34H80.3105H83.1005C82.8305 4.82 82.5005 5.27 82.1105 5.63C81.6005 6.14 81.0305 6.53 80.3705 6.83C80.3405 6.83 80.3405 6.83 80.3105 6.86C79.6205 7.13 78.8705 7.28 78.1205 7.28H71.3105V20H75.5105V11.51H78.1205C78.1805 11.51 78.2405 11.48 78.3005 11.48H78.3305H78.3605H78.4205C78.4805 11.48 78.5105 11.48 78.5705 11.48C78.6005 11.48 78.6305 11.48 78.6305 11.48C78.6905 11.48 78.7505 11.48 78.8105 11.48H78.8705L78.9005 11.45C78.9605 11.45 79.0205 11.45 79.1105 11.45C79.1705 11.45 79.2305 11.42 79.3205 11.42C79.3505 11.42 79.3805 11.42 79.4105 11.42C79.4705 11.39 79.5305 11.39 79.5905 11.39C79.6205 11.39 79.6505 11.39 79.6805 11.36C79.7105 11.36 79.7705 11.36 79.8305 11.36C79.9505 11.33 80.0705 11.3 80.1905 11.27L85.2905 19.64L85.5305 20H90.4505L89.7305 18.8Z" fill="#00A3FF"/>
</svg>
