<svg width="88" height="88" viewBox="0 0 88 88" fill="none" xmlns="http://www.w3.org/2000/svg">
<path d="M29.3333 18.595L7.33333 12.7014C3.28289 11.6161 0 14.019 0 18.0719V66.9607C0 71.0087 3.28289 75.1716 7.33333 76.2594L29.3333 82.153V18.595ZM58.6667 74.2941L80.6667 80.1876C84.7147 81.2705 88 78.8676 88 74.8196V25.9307C88 21.8803 84.7147 17.7174 80.6667 16.6321L58.6667 10.7385V74.2941Z" fill="#CCD6DD"/>
<path d="M58.6667 74.2916L29.3333 82.1505V18.595L58.6667 10.7361V74.2916Z" fill="#E1E8ED"/>
<path d="M29.3333 23.4839L9.77777 18.243C7.07911 17.5194 4.88889 19.123 4.88889 21.8217V65.8217C4.88889 68.5203 7.07911 71.2972 9.77777 72.0183L29.3333 77.2617V23.4839ZM78.2222 20.8634L58.6667 15.6226V69.4003L78.2222 74.6412C80.9209 75.3648 83.1111 73.7637 83.1111 71.0601V27.0601C83.1111 24.3639 80.9209 21.587 78.2222 20.8634Z" fill="#55ACEE"/>
<path d="M58.6667 69.4028L29.3333 77.2617V23.4839L58.6667 15.625V69.4028Z" fill="#88C9F9"/>
<path d="M29.3333 52.5703C28.6782 52.585 27.8789 52.8245 27.2678 52.9248C26.202 53.1032 26.4636 54.1885 26.136 54.0076C25.806 53.8268 24.9749 53.3599 24.1511 52.3992C23.3273 51.4361 24.7622 51.2332 25.1729 50.8788C25.5836 50.5243 24.4004 50.4583 23.9873 50.0672C23.5742 49.6785 22.836 50.3214 22.1809 49.3925C21.5209 48.4734 21.934 47.4614 21.8558 46.5081C21.7727 45.5548 22.9216 45.6745 23.6622 45.6916C24.4029 45.699 24.9773 46.0436 24.9773 47.1632C24.9773 48.2779 25.8818 48.8939 25.6349 47.5201C25.388 46.1488 25.8818 45.9141 26.2093 45.3445C26.5369 44.7823 27.1138 44.0001 27.852 42.8023C28.3922 41.9272 28.8029 42.1105 29.3333 42.4014V34.2248C29.1989 34.1172 29.0644 34.0048 28.93 33.9485C28.1893 33.6259 29.1647 35.7892 28.5902 36.6594C28.0109 37.5296 27.1284 37.1312 26.2191 36.8892C25.3171 36.6472 24.4762 35.557 25.1362 34.4276C25.7913 33.2983 27.0478 33.7725 27.7053 32.8314C28.3629 31.8903 25.366 31.1888 24.2978 30.5312C23.2271 29.8688 21.9438 29.5314 20.8756 30.1743C19.8073 30.8196 17.5193 30.4994 16.6149 30.629C15.7104 30.761 15.5491 29.727 15.3853 28.935C15.2216 28.1479 13.7891 28.1308 12.3127 28.1088C10.8313 28.0843 8.05689 28.7956 8.53111 32.4085C8.69734 33.665 10.01 32.7116 10.2593 32.4965C10.5062 32.2814 11.7382 32.9854 11.8996 34.0536C12.0658 35.1268 11.9851 36.2219 11.6576 37.0652C11.3227 37.9085 12.4789 39.5243 13.134 41.0056C13.7916 42.4845 14.5347 42.6825 14.8622 42.773C15.1922 42.861 17.0818 44.2079 17.0011 45.2076C16.9204 46.2123 18.7269 47.6301 19.4676 48.4832C20.2082 49.3388 20.6751 50.1014 21.6358 50.5512C22.5964 50.9985 23.7184 53.0812 24.2122 53.399C24.5911 53.6434 25.234 54.5014 25.6202 54.8168C25.1118 55.4083 24.1242 56.6452 24.1242 57.3321C24.1242 58.2683 25.1998 60.0283 25.6104 60.5099C26.0187 60.989 27.1993 61.5903 27.4462 62.5877C27.6931 63.5825 27.2751 66.6112 26.5369 67.2492C25.7938 67.8896 25.5249 69.7988 25.5249 69.7988C25.5249 69.7988 25.7864 70.515 26.6616 70.1019C27.4169 69.7499 28.5584 68.7183 29.3358 68.1439V52.5703H29.3333Z" fill="#5C913B"/>
<path d="M29.9884 42.5651C29.744 42.6042 29.5313 42.5944 29.3333 42.5919V34.4153C29.9542 34.5742 30.5849 35.1902 31.0616 36.2144C31.6336 37.4586 32.538 36.3757 32.868 37.1286C33.1956 37.8815 35.0069 38.9815 34.1024 38.9424C33.1956 38.9057 32.2911 38.962 32.0467 40.0522C31.7973 41.1473 32.4573 41.9931 31.7973 42.0762C31.1373 42.1568 30.8929 42.4233 29.9884 42.5651ZM36.3196 56.1513C35.2538 55.9704 35.442 56.0951 34.7844 54.6871C34.1293 53.2766 33.7309 52.8708 32.252 53.0835C30.7731 53.2962 30.8269 53.4159 30.4162 52.6851C30.2402 52.3722 29.8271 52.4846 29.3333 52.7608V68.3319C29.5533 68.0533 29.7489 67.8162 29.8907 67.6793C31.1251 66.5133 32.3253 65.1713 33.4742 63.6557C34.6231 62.1377 34.2076 61.3971 34.782 60.0355C35.3589 58.6715 36.1044 58.5273 37.0896 57.2366C38.0796 55.9411 37.3878 56.3371 36.3196 56.1513ZM58.6667 38.4535V23.0193C58.5689 23.0291 58.5004 23.0486 58.3978 23.056C57.8869 23.0828 57.2196 23.386 56.4936 23.8382C56.4349 23.826 56.3811 23.7991 56.3224 23.7868C54.1322 23.3591 53.1153 26.7324 51.3382 26.6028C49.5562 26.4733 47.1827 25.762 45.6378 27.8593C44.0953 29.9542 43.7384 31.5993 45.6378 31.0224C47.5371 30.4455 48.8449 27.5391 49.7933 28.3604C50.7418 29.1817 50.5022 30.1228 48.2484 31.0615C45.9947 32.0026 43.56 33.0586 42.2547 33.4082C40.9493 33.7577 40.6536 34.7135 41.5409 35.4175C42.4307 36.1215 41.0056 36.5688 39.5218 37.9108C38.038 39.2479 39.8787 39.1624 41.1253 39.6342C42.372 40.106 43.3204 38.8446 43.8558 37.356C44.3862 35.8697 46.6864 33.638 47.6447 33.5817C48.6029 33.5255 48.6029 34.0633 48.422 35.0533C48.3902 35.2268 48.4244 35.3051 48.4489 35.3906C48.0333 36.7106 47.6911 37.9084 47.5567 38.5831C47.4931 38.9131 47.4809 39.4411 47.4907 40.0375C47.2804 40.0473 47.0433 40.0888 46.8844 40.0399C45.8138 39.7246 43.3791 39.5022 42.7264 40.1451C42.0738 40.7928 41.7193 41.3722 40.9469 41.9124C40.172 42.4477 37.0284 44.9044 36.9698 47.0066C36.9087 49.1064 36.85 51.4799 38.0967 51.2135C39.3433 50.9471 42.372 49.1944 43.3204 48.0651C44.2664 46.9333 45.5718 46.7891 45.9898 47.6837C46.4053 48.5857 46.1071 49.2702 45.6964 50.9935C45.2784 52.7242 45.9653 53.3475 46.6278 54.5819C47.2951 55.8139 47.828 56.4764 47.828 57.4884C47.828 58.4955 48.7789 59.2557 50.1991 57.1877C50.6587 56.5277 51.0962 55.7064 51.5093 54.8484C52.5091 53.7019 53.3867 52.5922 53.3622 52.1693C53.3231 51.4824 53.3109 51.1084 53.3036 50.6439L53.526 50.1062C53.8364 49.3899 54.1151 48.2826 54.4109 47.2828C54.428 47.2584 54.4427 47.2413 54.4598 47.2242C55.0391 46.4004 54.912 46.3613 55.8776 45.3762C56.5229 44.7162 56.4984 44.1246 56.4007 43.7188C56.6573 43.2911 56.7282 43.0344 56.32 43.1444L56.2809 43.1542C56.276 43.1542 56.2687 43.2006 56.2662 43.1884C56.21 42.8242 55.7627 43.1957 55.0416 43.5502C54.3473 43.5697 53.658 43.3888 53.4087 42.6506C53.0836 41.6826 51.9371 40.216 51.8467 39.3848C51.854 39.2846 51.8589 39.1966 51.8711 39.0817C51.9053 38.9937 51.9518 38.9204 52.0398 38.8666C52.1327 38.8128 52.2231 38.7933 52.3136 38.7811C52.4138 39.0524 52.4969 39.4631 52.5238 39.9153C52.5873 41.0813 53.4869 40.3944 53.4869 41.1326C53.4869 41.8733 54.7824 42.3353 55.1027 42.4722C55.1931 42.5113 55.3324 42.4062 55.4913 42.2326C55.5671 42.2595 55.638 42.3133 55.7187 42.3231C56.4324 42.3988 57.9724 39.9177 58.4491 39.4777C58.6984 39.2455 58.7033 38.8202 58.5298 38.5146L58.6667 38.4535Z" fill="#77B255"/>
<path d="M67.5498 49.4291C67.4202 50.5046 67.9996 49.9204 69.0311 51.1524C70.0651 52.3942 68.7769 52.1155 68.3247 51.9248C67.8724 51.7293 67.4202 51.6046 66.9093 50.6586C66.3887 49.7029 66.9093 48.9597 66.9093 48.1482C66.9093 48.1482 67.6818 48.3535 67.5498 49.4291ZM68.4347 47.2266C69.3856 47.6324 68.7133 46.0484 69.0311 45.1708C69.3538 44.3006 69.8036 44.2713 70.3878 44.2835C70.9647 44.2884 71.4193 43.8166 71.808 43.3326C72.1918 42.8462 72.9031 42.2228 72.8396 41.5408C72.776 40.8588 72.5853 40.3626 72.3213 39.4802C72.0647 38.6002 73.0938 38.5806 73.5484 37.7422C73.9982 36.9037 73.5484 37.7422 74.5776 37.7226C75.6091 37.7031 75.1593 37.5808 75.35 37.1897C75.5456 36.8011 75.6751 36.3904 75.482 35.5275C75.2913 34.6646 74.5776 35.2831 73.8687 35.0948C73.1622 34.9066 74.1278 34.056 74.1913 33.1882C74.2549 32.318 75.1618 32.7848 75.8071 32.8826C76.45 32.978 76.6431 34.0657 76.8362 34.342C77.0342 34.6157 79.024 33.4497 79.5447 32.7751C80.0604 32.1028 79.09 32.0637 79.3516 31.79C79.6107 31.5186 77.8067 30.9662 77.0904 30.6435C76.384 30.3184 74.5776 29.7464 73.8687 29.0571C73.1622 28.3653 70.4562 28.0157 69.7424 28.2333C69.0311 28.4435 68.5789 27.8837 68.2611 27.2408C67.9409 26.6004 66.5842 26.5148 66.198 26.0993C65.8118 25.6837 65.4256 26.4097 64.9049 26.4904C64.3916 26.576 64.1984 26.5955 63.5507 25.9795C62.9078 25.3635 63.7462 25.0726 62.8467 24.4615C61.9789 23.8797 60.8593 24.0166 58.6667 23.0168V38.4511C59.0504 38.4853 59.422 38.5391 59.5565 38.5757C59.8767 38.6613 60.6516 39.9764 60.6516 40.4922C60.6516 41.008 61.0378 42.5162 61.3629 43.4133C61.6831 44.308 62.3896 44.6502 63.0398 45.4128C63.6851 46.1755 64.0029 45.7477 64.0029 45.7477C64.0029 45.7477 63.7462 44.418 63.7462 43.3888C63.7462 42.3524 64.5187 41.6753 64.5187 41.6753C64.5187 41.6753 65.7409 43.0393 65.8093 43.3497C65.8729 43.6626 66.8384 44.9533 66.9069 45.4911C66.9704 46.0264 67.4862 46.8257 68.4347 47.2266ZM73.5484 42.1715C73.9982 42.3671 75.9342 42.5895 74.9027 41.3551C73.8687 40.1182 74.6436 40.6242 74.7731 39.5511C74.9027 38.4755 74.1278 38.2702 74.1278 38.2702C74.1278 39.0817 73.612 39.8297 74.1278 40.7782C74.6411 41.7315 73.0938 41.976 73.5484 42.1715ZM78.4471 55.3006C78.1269 54.7702 77.418 54.3595 76.6431 54.1737C75.8731 53.988 75.9342 53.0004 75.1618 52.8708C74.3893 52.7364 73.832 51.92 73.4849 51.6193C72.7222 50.9691 73.2258 52.1302 73.4849 53.328C73.744 54.5208 74.7096 53.9293 75.6091 54.7604C76.5111 55.5915 76.5796 54.7995 77.418 55.3202C78.254 55.836 78.5791 56.5913 79.3833 56.7331C80.1876 56.8773 78.7722 55.8311 78.4471 55.3006ZM70.8987 51.8002C71.5391 52.7828 71.2873 51.9053 72.1307 51.7611C72.9691 51.6168 71.4193 50.3897 70.9036 49.808C70.3878 49.2262 69.8769 49.0722 69.4247 49.9277C68.9113 50.9031 70.2607 50.8175 70.8987 51.8002ZM76.7727 58.1044C76.4476 57.2782 75.5064 56.3615 75.1227 55.88C74.734 55.4082 74.1278 55.1173 73.612 55.198C73.0938 55.2737 72.7736 54.9731 72.5169 54.3155C72.2578 53.6653 71.808 53.746 71.4193 53.7191C71.0356 53.6897 69.4858 54.01 68.5813 54.2813C67.6818 54.5575 67.2687 54.8973 66.6796 55.3984C65.7458 56.1806 66.264 55.6551 66.6796 56.4348C67.0902 57.2122 66.2224 59.0406 66.1589 60.2066C66.0929 61.3726 67.8113 60.2824 68.4542 60.302C69.0996 60.3313 68.9089 59.84 69.4222 59.5344C69.9404 59.2288 70.2753 59.2191 70.8376 59.9548C71.4071 60.7004 72.1502 61.4484 72.1502 62.1133C72.1502 62.7733 74.1889 64.4282 74.9638 64.196C75.7362 63.9564 76.1884 63.1986 76.8973 62.6437C77.6087 62.0937 77.352 60.6295 77.5427 59.7886C77.7407 58.9477 77.0904 58.9233 76.7727 58.1044Z" fill="#5C913B"/>
</svg>
