<svg width="12" height="14" viewBox="0 0 12 14" fill="none" xmlns="http://www.w3.org/2000/svg">
<path d="M5.99993 0.285767C6.5485 0.285717 7.0762 0.496054 7.47432 0.873447C7.87245 1.25084 8.11067 1.76655 8.13993 2.31434L8.14279 2.42862H11.2856C11.3942 2.42866 11.4988 2.46991 11.5781 2.54404C11.6574 2.61817 11.7057 2.71965 11.7131 2.82798C11.7205 2.93632 11.6865 3.04342 11.618 3.12765C11.5494 3.21188 11.4515 3.26697 11.3439 3.28177L11.2856 3.28577H10.6805L9.98336 11.8875C9.93986 12.4241 9.69596 12.9247 9.30018 13.2896C8.9044 13.6546 8.38573 13.8572 7.84736 13.8572H4.1525C3.61413 13.8572 3.09546 13.6546 2.69968 13.2896C2.3039 12.9247 2.06 12.4241 2.0165 11.8875L1.31879 3.28577H0.714216C0.610652 3.28576 0.510592 3.24826 0.432541 3.18019C0.354491 3.11211 0.303729 3.01808 0.289645 2.91548L0.285645 2.85719C0.285649 2.75363 0.323155 2.65357 0.391226 2.57552C0.459297 2.49747 0.553328 2.44671 0.65593 2.43262L0.714216 2.42862H3.85707C3.85707 1.8603 4.08284 1.31526 4.4847 0.913395C4.88656 0.511531 5.43161 0.285767 5.99993 0.285767ZM9.82107 3.28577H2.17879L2.87079 11.8183C2.89692 12.1403 3.04328 12.4406 3.28077 12.6596C3.51826 12.8786 3.82948 13.0001 4.1525 13.0001H7.84736C8.17038 13.0001 8.4816 12.8786 8.71908 12.6596C8.95658 12.4406 9.10294 12.1403 9.12907 11.8183L9.8205 3.28577H9.82107ZM4.71422 5.42862C4.81778 5.42863 4.91784 5.46613 4.99589 5.5342C5.07394 5.60228 5.1247 5.69631 5.13879 5.79891L5.14279 5.85719V10.4286C5.14275 10.5372 5.1015 10.6417 5.02737 10.7211C4.95324 10.8004 4.85176 10.8487 4.74343 10.8561C4.63509 10.8635 4.52799 10.8295 4.44376 10.7609C4.35953 10.6924 4.30445 10.5945 4.28964 10.4869L4.28564 10.4286V5.85719C4.28564 5.74353 4.3308 5.63452 4.41117 5.55415C4.49154 5.47378 4.60055 5.42862 4.71422 5.42862ZM7.28564 5.42862C7.38921 5.42863 7.48927 5.46613 7.56732 5.5342C7.64537 5.60228 7.69613 5.69631 7.71022 5.79891L7.71422 5.85719V10.4286C7.71418 10.5372 7.67293 10.6417 7.5988 10.7211C7.52467 10.8004 7.42319 10.8487 7.31486 10.8561C7.20652 10.8635 7.09942 10.8295 7.01519 10.7609C6.93095 10.6924 6.87587 10.5945 6.86107 10.4869L6.85707 10.4286V5.85719C6.85707 5.74353 6.90223 5.63452 6.9826 5.55415C7.06297 5.47378 7.17198 5.42862 7.28564 5.42862ZM5.99993 1.14291C5.67414 1.14287 5.36049 1.26651 5.12236 1.48883C4.88422 1.71116 4.73937 2.0156 4.71707 2.34062L4.71422 2.42862H7.28564L7.28279 2.34062C7.26049 2.0156 7.11564 1.71116 6.8775 1.48883C6.63937 1.26651 6.32572 1.14287 5.99993 1.14291Z" fill="#7E7E7E"/>
</svg>
