<svg width="25" height="25" viewBox="0 0 25 25" fill="none" xmlns="http://www.w3.org/2000/svg">
<path d="M11.3403 3.50699C12.8445 3.50561 14.3154 3.95042 15.5668 4.78514C16.8182 5.61986 17.794 6.80699 18.3706 8.19635C18.9472 9.58571 19.0987 11.1149 18.8061 12.5904C18.5135 14.0659 17.7898 15.4215 16.7266 16.4856C15.6635 17.5498 14.3085 18.2747 12.8333 18.5687C11.358 18.8627 9.82873 18.7125 8.43884 18.1371C7.04896 17.5618 5.86094 16.5872 5.02508 15.3365C4.18921 14.0859 3.74306 12.6154 3.74306 11.1112C3.75218 9.09841 4.55531 7.1706 5.97789 5.74672C7.40048 4.32283 9.32755 3.51794 11.3403 3.50699ZM11.3403 2.08337C9.55476 2.08337 7.80933 2.61284 6.32472 3.60483C4.84011 4.59681 3.68299 6.00676 2.9997 7.65637C2.31641 9.30598 2.13763 11.1212 2.48597 12.8724C2.83431 14.6236 3.69412 16.2322 4.95668 17.4948C6.21924 18.7573 7.82783 19.6171 9.57905 19.9655C11.3303 20.3138 13.1455 20.135 14.7951 19.4517C16.4447 18.7684 17.8546 17.6113 18.8466 16.1267C19.8386 14.6421 20.3681 12.8967 20.3681 11.1112C20.3681 8.71684 19.4169 6.42059 17.7239 4.72755C16.0308 3.03451 13.7346 2.08337 11.3403 2.08337Z" fill="#7E7E7E"/>
<path d="M24.3056 23.1181L19.1875 17.9653L18.2014 18.9445L23.3195 24.0973C23.3838 24.162 23.4602 24.2135 23.5444 24.2487C23.6285 24.2839 23.7188 24.3022 23.8101 24.3025C23.9013 24.3028 23.9917 24.2852 24.0762 24.2506C24.1606 24.216 24.2374 24.165 24.3021 24.1007C24.3669 24.0365 24.4183 23.96 24.4535 23.8759C24.4887 23.7917 24.507 23.7014 24.5074 23.6101C24.5077 23.5189 24.49 23.4285 24.4554 23.3441C24.4208 23.2596 24.3699 23.1829 24.3056 23.1181Z" fill="#7E7E7E"/>
</svg>
