<svg width="130" height="16" viewBox="0 0 130 16" fill="none" xmlns="http://www.w3.org/2000/svg">
<path d="M8.4783 11.5134L12.8446 14L11.6859 9.31337L15.5435 6.16004L10.4636 5.75337L8.4783 1.33337L6.49298 5.75337L1.41309 6.16004L5.27069 9.31337L4.112 14L8.4783 11.5134Z" fill="#FFA800"/>
<path d="M36.7393 11.5134L41.1056 14L39.9469 9.31337L43.8045 6.16004L38.7246 5.75337L36.7393 1.33337L34.754 5.75337L29.6741 6.16004L33.5317 9.31337L32.373 14L36.7393 11.5134Z" fill="#FFA800"/>
<path d="M65 11.5134L69.3663 14L68.2076 9.31337L72.0652 6.16004L66.9854 5.75337L65 1.33337L63.0147 5.75337L57.9348 6.16004L61.7924 9.31337L60.6337 14L65 11.5134Z" fill="#FFA800"/>
<path d="M93.261 11.5134L97.6273 14L96.4686 9.31337L100.326 6.16004L95.2463 5.75337L93.261 1.33337L91.2757 5.75337L86.1958 6.16004L90.0534 9.31337L88.8947 14L93.261 11.5134Z" fill="#FFA800"/>
<path d="M121.522 4.75337L122.207 6.28004L122.539 7.02004L123.387 7.08671L125.132 7.22671L123.804 8.31337L123.161 8.84004L123.352 9.62671L123.747 11.2334L122.249 10.38L121.522 9.95337L120.794 10.3667L119.296 11.22L119.692 9.61337L119.883 8.82671L119.24 8.30004L117.911 7.21337L119.657 7.07337L120.504 7.00671L120.836 6.26671L121.522 4.75337ZM121.522 1.33337L119.536 5.75337L114.457 6.16004L118.314 9.31337L117.155 14L121.522 11.5134L125.888 14L124.729 9.31337L128.587 6.16004L123.507 5.75337L121.522 1.33337Z" fill="#FFA800"/>
</svg>
